<svg height="512" viewBox="0 0 128 128" width="512" xmlns="http://www.w3.org/2000/svg"><g><path d="m106.808 67.12-7.908 13.692h4.859c-.64 9.82-9.015 17.6-21.092 21.538a9.016 9.016 0 0 1 -11.148-5.356 40.625 40.625 0 0 1 -3.019-14.619v-60.375h-9v60.375a40.625 40.625 0 0 1 -3.022 14.619 9.016 9.016 0 0 1 -11.148 5.356c-12.077-3.936-20.452-11.718-21.092-21.538h4.862l-7.908-13.692-7.9 13.692h4.946c.761 16.137 16.549 30.907 37.75 33.943l8.012 6.745 8.017-6.745c21.2-3.036 36.989-17.806 37.75-33.943h4.946z" fill="#3ba9fd"/><path d="m68.525 105.233a1.748 1.748 0 0 1 -1.329-.61 16.742 16.742 0 0 1 -2.888-4.8 1.749 1.749 0 1 1 3.257-1.278 13.239 13.239 0 0 0 2.288 3.8 1.749 1.749 0 0 1 -1.328 2.889z" fill="#0093df"/><g><circle cx="64" cy="15.5" fill="#0093df" r="9"/><circle cx="64" cy="15.5" fill="#eaeaf0" r="3"/></g><path d="m35.25 40.5h57.5v9h-57.5z" fill="#0093df"/></g></svg>