<svg id="Capa_1" enable-background="new 0 0 512 512" height="512" viewBox="0 0 512 512" width="512" xmlns="http://www.w3.org/2000/svg"><path d="m22.5 7.5c-8.284 0-15 6.716-15 15v467c0 8.284 6.716 15 15 15s15-6.716 15-15v-467c0-8.284-6.716-15-15-15z" fill="#ffd06a"/><path d="m504.5 135h-30l-120 136 120 136h30l-60-136z" fill="#ff3e3a"/><path d="m474.5 135h-226v272h226l-60-136z" fill="#ff5d34"/><path d="m248.5 45h-30l45 302 30 15v-272c0-24.75-20.25-45-45-45z" fill="#ff3e3a"/><path d="m218.5 45h-181c80 75.111 80 196.889 0 272h166l60 30v-257c0-24.75-20.25-45-45-45z" fill="#ff5d34"/><path d="m263.5 319.571-15 87.429c24.853 0 45-20.147 45-45 0-19.592-12.524-36.25-30-42.429z" fill="#cc3245"/><path d="m263.5 362v-42.429c-4.693-1.659-9.739-2.571-15-2.571h-45v45c0 24.853 20.147 45 45 45 8.284 0 15-20.147 15-45z" fill="#ff3e3a"/><path d="m452.697 271 58.665-132.973c1.022-2.319.805-4.999-.579-7.123-1.385-2.124-3.748-3.404-6.283-3.404h-181c-4.143 0-7.5 3.357-7.5 7.5s3.357 7.5 7.5 7.5h169.494l-55.356 125.473c-.851 1.929-.851 4.126 0 6.055l55.356 125.472h-207.802c9.745-9.537 15.808-22.821 15.808-37.5v-272c0-28.948-23.552-52.5-52.5-52.5h-203.5v-15c0-12.406-10.094-22.5-22.5-22.5s-22.5 10.094-22.5 22.5v467c0 12.406 10.094 22.5 22.5 22.5s22.5-10.094 22.5-22.5v-165h151v37.5c0 28.948 23.552 52.5 52.5 52.5h256c2.535 0 4.898-1.28 6.283-3.404 1.384-2.124 1.602-4.804.579-7.123zm-422.697 218.5c0 4.136-3.364 7.5-7.5 7.5s-7.5-3.364-7.5-7.5v-467c0-4.136 3.364-7.5 7.5-7.5s7.5 3.364 7.5 7.5zm15-425.999c29.139 33.022 45 74.126 45 117.499s-15.861 84.477-45 117.499zm10.304 245.999c32.175-35.939 49.696-80.942 49.696-128.5s-17.521-92.561-49.696-128.5h193.196c20.678 0 37.5 16.822 37.5 37.5v235.293c-9.536-9.74-22.824-15.793-37.5-15.793zm155.696 52.5v-37.5h37.5c20.678 0 37.5 16.822 37.5 37.5s-16.822 37.5-37.5 37.5-37.5-16.822-37.5-37.5z"/></svg>