<?xml version="1.0" encoding="iso-8859-1"?>
<!-- Generator: Adobe Illustrator 19.0.0, SVG Export Plug-In . SVG Version: 6.00 Build 0)  -->
<svg version="1.1" id="Capa_1" xmlns="http://www.w3.org/2000/svg" xmlns:xlink="http://www.w3.org/1999/xlink" x="0px" y="0px"
	 viewBox="0 0 512 512" style="enable-background:new 0 0 512 512;" xml:space="preserve">
<g>
	<g>
		<path style="fill:#DFE6E9;" d="M98.231,452.14l81.813-81.814L372.46,177.911l81.814-81.814c11.084,11.084,29.063,11.084,40.147,0
			c11.085-11.084,9.078-31.071,0.001-40.148s-16.942-9.629-26.044-7.682c3.317-9.891,2.643-19.643-6.837-29.124
			s-29.063-11.085-40.148,0c-11.085,11.084-11.085,29.062,0,40.147l-83.776,83.776L145.202,335.483l-83.777,83.776
			c-11.084-11.084-29.063-11.084-40.146,0c-11.085,11.085-11.085,29.063,0,40.148c7.876,7.876,19.233,10.155,29.124,6.837
			c-1.948,9.101,0.612,18.975,7.681,26.044c11.085,11.085,29.063,11.085,40.148,0C109.315,481.203,109.315,463.225,98.231,452.14z"
			/>
		<path style="fill:#DFE6E9;" d="M413.77,452.14l-81.813-81.814L139.542,177.911L57.727,96.097
			c-11.084,11.084-29.062,11.084-40.146,0C6.496,85.013,8.503,65.026,17.58,55.949s16.943-9.629,26.044-7.682
			c-3.317-9.891-2.643-19.643,6.838-29.124c9.48-9.481,29.063-11.085,40.147,0s11.085,29.062,0,40.147l83.776,83.776L366.8,335.483
			l83.776,83.776c11.085-11.084,29.063-11.084,40.147,0c11.086,11.085,11.086,29.063,0,40.148
			c-7.875,7.876-19.233,10.155-29.124,6.837c1.948,9.101-0.611,18.975-7.681,26.044c-11.085,11.085-29.064,11.085-40.149,0
			C402.686,481.203,402.686,463.225,413.77,452.14z"/>
		<path style="fill:#DFE6E9;" d="M254.52,59.291L254.52,59.291c31.008,0,59.858,9.698,83.67,26.21
			c35.951,24.931,60.418,65.395,63.48,111.47h0.336v9.807v92.438c0,49.948-17.815,41.386-52.854,41.386v47.234
			c0,8.316-6.809,15.124-15.125,15.124H175.771c-8.317,0-15.126-6.806-15.126-15.124v-23.161v-24.073
			c-35.185,0-53.612,8.846-53.612-41.386v-92.438v-9.807h0.336C112.461,120.38,176.697,59.291,254.52,59.291z"/>
	</g>
	<g>
		<path style="fill:#5C6470;" d="M186.245,302.437c25.373,0,46.066-20.693,46.066-46.066c0-25.372-20.693-46.066-46.066-46.066
			c-25.371,0-46.065,20.694-46.065,46.066C140.179,281.744,160.874,302.437,186.245,302.437z"/>
		<path style="fill:#5C6470;" d="M322.796,302.437c25.371,0,46.064-20.693,46.064-46.066c0-25.372-20.693-46.066-46.064-46.066
			c-25.373,0-46.066,20.694-46.066,46.066C276.729,281.744,297.423,302.437,322.796,302.437z"/>
	</g>
	<path style="fill:#DFE6E9;" d="M320.385,402.806c0,91.932-131.732,79.352-131.732,0.154h129.784
		C319.1,402.96,319.751,402.907,320.385,402.806z"/>
</g>
<g>
	<path style="fill:#000001;" d="M470.651,400.945c-10.255,0-19.895,3.993-27.145,11.242c-3.905,3.905-3.906,10.237,0,14.142
		c3.905,3.906,10.238,3.906,14.142,0.001c3.473-3.472,8.09-5.385,13.003-5.385c4.912,0,9.53,1.912,13.002,5.385
		c3.473,3.473,5.385,8.09,5.385,13.002c0,4.913-1.913,9.53-5.386,13.004c-4.967,4.969-12.199,6.665-18.872,4.426
		c-3.405-1.142-7.162-0.37-9.842,2.022c-2.679,2.393-3.869,6.039-3.117,9.552c1.314,6.141-0.545,12.451-4.974,16.879
		c-7.17,7.17-18.836,7.17-26.006,0c-7.169-7.17-7.169-18.836,0-26.006c3.905-3.905,3.905-10.237,0-14.142l-61.689-61.689v-32.583
		c1.031,0.035,2.051,0.071,3.062,0.107c2.085,0.075,4.098,0.145,6.058,0.193l29.817,29.817c1.953,1.953,4.512,2.929,7.071,2.929
		c2.559,0,5.119-0.977,7.071-2.929c3.905-3.905,3.905-10.237,0-14.142l-19.14-19.14c3.353-1.579,6.468-3.827,9.188-7.06
		c6.818-8.105,9.727-20.474,9.727-41.357V196.971c0-1.153-0.195-2.261-0.555-3.292c-0.97-11.667-3.215-23.046-6.64-33.978
		l50.387-50.388c5.76,3.325,12.317,5.096,19.148,5.096c10.255,0,19.895-3.992,27.144-11.242c7.131-7.13,10.854-17.156,10.485-28.231
		c-0.341-10.24-4.163-19.738-10.483-26.059c-7.416-7.416-14.677-10.417-21.31-11.255c-0.117-9.407-3.983-17.963-11.571-25.551
		c-12.813-12.814-38.754-15.535-54.29,0c-7.25,7.25-11.243,16.89-11.243,27.145c0,6.831,1.772,13.388,5.097,19.149L368.37,98.171
		c-7.308-7.623-15.433-14.594-24.324-20.775c-0.033-0.023-0.065-0.047-0.098-0.07c-0.02-0.014-0.039-0.028-0.059-0.042
		c-26.408-18.313-57.311-27.993-89.369-27.993c-43.749,0-83.678,18.11-112.386,47.384l-6.405-6.404
		c-3.905-3.905-10.237-3.905-14.142,0.001c-3.905,3.905-3.905,10.237,0,14.142l7.435,7.435
		c-6.047,7.964-11.357,16.523-15.826,25.576L64.798,89.026c-3.905-3.905-10.237-3.905-14.142,0c-7.168,7.17-18.834,7.171-26.004,0
		c-3.127-3.127-4.818-8.02-4.638-13.422c0.167-4.994,1.987-9.934,4.637-12.583c6.051-6.052,10.096-6.427,16.88-4.974
		c3.51,0.752,7.158-0.438,9.551-3.117c2.393-2.679,3.165-6.436,2.023-9.841c-2.611-7.785-1.369-13.076,4.428-18.873
		c5.852-5.853,19.001-7.003,26.005,0c3.472,3.472,5.384,8.09,5.384,13.002c0,4.913-1.912,9.531-5.385,13.003
		c-3.905,3.905-3.905,10.237,0.001,14.142c3.905,3.905,10.237,3.905,14.142-0.001c7.25-7.25,11.243-16.89,11.243-27.145
		S104.93,19.322,97.68,12.072c-15.536-15.535-41.475-12.813-54.29,0c-7.588,7.588-11.455,16.144-11.572,25.551
		c-6.632,0.837-13.893,3.839-21.31,11.255C4.188,55.199,0.366,64.697,0.025,74.937c-0.37,11.075,3.354,21.101,10.484,28.231
		c12.523,12.521,31.616,14.567,46.284,6.137l48.178,48.177c-3.815,11.525-6.338,23.645-7.383,36.197
		c-0.359,1.031-0.555,2.139-0.555,3.292v102.244c0,20.582,3.035,33.345,9.84,41.385c3.26,3.852,7.068,6.316,11.168,7.899
		l-57.542,57.542c-5.76-3.326-12.317-5.097-19.148-5.097c-10.255,0-19.895,3.993-27.144,11.242
		c-14.968,14.968-14.968,39.323,0,54.29c7.076,7.077,16.349,10.975,25.947,11.254c1.164,8.073,4.896,15.665,10.858,21.627
		c7.484,7.484,17.315,11.226,27.146,11.226c9.83,0,19.662-3.742,27.146-11.226c12.521-12.522,14.566-31.615,6.137-46.284
		l47.038-47.038c4.509,4.286,10.597,6.924,17.294,6.924h3.56c2.347,17.785,10.951,33.568,24.86,45.159
		c14.506,12.088,34.152,19.022,53.9,19.022c19.2,0,36.871-6.446,49.759-18.151c12.548-11.397,20.041-27.18,22-46.03h4.179
		c7.256,0,13.799-3.095,18.39-8.03l48.144,48.144c-8.43,14.669-6.385,33.762,6.137,46.285c7.484,7.484,17.315,11.226,27.146,11.226
		s19.661-3.742,27.146-11.226c5.962-5.962,9.694-13.554,10.858-21.627c9.598-0.28,18.871-4.177,25.946-11.254
		c7.25-7.25,11.244-16.89,11.244-27.146c0-10.255-3.993-19.895-11.243-27.145C490.545,404.938,480.905,400.945,470.651,400.945z
		 M428.464,66.362c3.905-3.905,3.905-10.237,0-14.142c-3.473-3.473-5.385-8.091-5.385-13.003s1.912-9.53,5.384-13.002
		c7.004-7.003,20.154-5.853,26.006,0c5.797,5.796,7.038,11.088,4.427,18.873c-1.142,3.405-0.37,7.162,2.022,9.841
		c2.393,2.679,6.036,3.869,9.551,3.118c6.783-1.452,10.829-1.078,16.88,4.974c2.65,2.65,4.471,7.589,4.637,12.583
		c0.18,5.402-1.51,10.294-4.638,13.422c-3.472,3.472-8.089,5.384-13.002,5.384s-9.53-1.912-13.002-5.384
		c-3.905-3.905-10.237-3.905-14.143,0l-50.355,50.355c-4.321-9.092-9.519-17.753-15.528-25.874L428.464,66.362z M91.16,445.069
		c-3.905,3.905-3.905,10.237,0,14.142c7.169,7.17,7.169,18.836,0,26.005c-7.17,7.17-18.836,7.17-26.005,0
		c-4.429-4.429-6.289-10.74-4.974-16.88c0.752-3.513-0.438-7.159-3.117-9.552c-2.68-2.393-6.437-3.164-9.842-2.022
		c-6.673,2.24-13.904,0.542-18.873-4.427c-7.17-7.169-7.17-18.836,0-26.006c3.472-3.472,8.089-5.384,13.002-5.384
		s9.53,1.912,13.002,5.384c1.876,1.876,4.419,2.929,7.071,2.929c2.652,0,5.196-1.054,7.071-2.929l75.277-75.277
		c1.146-0.039,2.305-0.081,3.491-0.125c1.116-0.042,2.242-0.085,3.381-0.124v34.78L91.16,445.069z M294.403,444.185
		c-9.199,8.355-22.095,12.956-36.312,12.956c-25.951,0-53.357-15.41-58.55-44.181h110.171
		C307.959,425.915,302.762,436.592,294.403,444.185z M334.028,392.96h-3.642v-16.066c0-5.523-4.477-10-10-10s-10,4.477-10,10v16.066
		H264.52v-16.066c0-5.523-4.477-10-10-10c-5.523,0-10,4.477-10,10v16.066h-45.866v-15.912c0-5.523-4.477-10-10-10s-10,4.477-10,10
		v15.912h-2.883c-2.218,0-4.139-1.504-4.833-3.52c0.001-0.796-0.104-1.59-0.293-2.369v-36.47h8.094c5.523,0,10-4.477,10-10
		s-4.477-10-10-10h-18.094c-5.101,0-9.899,0.18-14.133,0.339c-3.562,0.134-6.927,0.261-9.921,0.261
		c-9.52,0-12.662-1.408-14.452-3.522c-3.388-4.003-5.106-13.579-5.106-28.464v-99.669c0.164-0.615,0.27-1.255,0.314-1.912
		C122.132,125.665,182.385,69.29,254.52,69.29c25.223,0,49.62,6.894,71.072,19.968l-10.68,24.141l-14.557-7.861
		c-4.742-2.559-10.658-0.903-13.38,3.745l-19.742,33.707c-2.791,4.766-1.191,10.892,3.575,13.683
		c1.589,0.93,3.328,1.373,5.045,1.373c3.434,0,6.777-1.771,8.638-4.947l14.861-25.372l15.577,8.412
		c2.454,1.325,5.351,1.565,7.988,0.663c2.639-0.902,4.78-2.866,5.909-5.416l13.395-30.276
		c29.105,24.137,46.958,58.696,49.473,96.525c0.044,0.658,0.15,1.297,0.314,1.913v99.668c0,14.93-1.693,24.514-5.032,28.483
		c-1.747,2.077-4.858,3.461-14.363,3.461c-2.924,0-6.206-0.118-9.68-0.243c-4.126-0.148-8.803-0.315-13.779-0.315h-18.092
		c-5.523,0-10,4.477-10,10s4.477,10,10,10h8.092v37.234C339.153,390.614,336.806,392.96,334.028,392.96z"/>
	<path style="fill:#000001;" d="M261.595,294.981c-0.001-0.002-0.003-0.003-0.004-0.005c-0.863-0.863-1.849-1.523-2.896-2.005
		c-2.212-1.017-4.714-1.195-7.022-0.512c-1.546,0.458-3.004,1.297-4.224,2.517l-18.229,18.229
		c-3.905,3.905-3.905,10.237,0.001,14.142c1.953,1.952,4.512,2.929,7.071,2.929s5.119-0.977,7.071-2.929l11.158-11.158
		l11.157,11.157c1.953,1.953,4.512,2.929,7.071,2.929c2.559,0,5.118-0.977,7.071-2.929c3.905-3.905,3.905-10.237,0-14.142
		L261.595,294.981z"/>
	<path style="fill:#000001;" d="M186.245,200.306c-30.914,0-56.065,25.151-56.065,56.066s25.151,56.066,56.065,56.066
		c30.915,0,56.066-25.151,56.066-56.066C242.311,225.456,217.16,200.306,186.245,200.306z M186.245,292.437
		c-19.887,0-36.065-16.179-36.065-36.066s16.179-36.066,36.065-36.066c19.887,0,36.066,16.179,36.066,36.066
		S206.132,292.437,186.245,292.437z"/>
	<path style="fill:#000001;" d="M378.86,256.371c0-30.915-25.15-56.066-56.064-56.066c-30.915,0-56.066,25.151-56.066,56.066
		s25.151,56.066,56.066,56.066C353.71,312.437,378.86,287.286,378.86,256.371z M286.729,256.371
		c0-19.887,16.179-36.066,36.066-36.066c19.886,0,36.064,16.179,36.064,36.066s-16.178,36.066-36.064,36.066
		C302.908,292.437,286.729,276.258,286.729,256.371z"/>
	<path style="fill:#000001;" d="M255.07,183.968c1.587,0.927,3.323,1.368,5.037,1.368c3.437,0,6.783-1.774,8.643-4.956l0.238-0.408
		c2.787-4.768,1.18-10.893-3.588-13.68c-4.768-2.785-10.893-1.181-13.68,3.588l-0.238,0.408
		C248.695,175.057,250.302,181.181,255.07,183.968z"/>
	<path style="fill:#000001;" d="M100.807,69.5c-3.902,3.908-3.898,10.24,0.01,14.142l0.334,0.334
		c1.953,1.95,4.509,2.924,7.066,2.924c2.562,0,5.123-0.979,7.076-2.934c3.902-3.908,3.898-10.24-0.01-14.142l-0.334-0.333
		C111.041,65.587,104.709,65.593,100.807,69.5z"/>
	<path style="fill:#000001;" d="M418.532,387.215c-3.905,3.905-3.905,10.237,0,14.142l0.334,0.334
		c1.953,1.953,4.512,2.929,7.071,2.929c2.559,0,5.118-0.977,7.071-2.929c3.905-3.905,3.905-10.237,0-14.142l-0.334-0.334
		C428.769,383.309,422.438,383.309,418.532,387.215z"/>
</g>
<g>
</g>
<g>
</g>
<g>
</g>
<g>
</g>
<g>
</g>
<g>
</g>
<g>
</g>
<g>
</g>
<g>
</g>
<g>
</g>
<g>
</g>
<g>
</g>
<g>
</g>
<g>
</g>
<g>
</g>
</svg>
